<svg width="385" height="385" viewBox="0 0 385 385" fill="none" xmlns="http://www.w3.org/2000/svg">
<g clip-path="url(#clip0_724_550)">
<path d="M385 192.5C385 298.815 298.815 385 192.5 385C86.1852 385 0 298.815 0 192.5C0 86.1852 86.1852 0 192.5 0C298.815 0 385 86.1852 385 192.5Z" fill="white"/>
<path d="M115.41 341C110.051 341 105.099 338.141 102.42 333.501L25.3312 199.996C22.6511 195.354 22.6512 189.635 25.3314 184.994L102.42 51.4989C105.099 46.8585 110.051 44 115.409 44H269.591C274.949 44 279.901 46.8585 282.58 51.4989L359.669 184.994C362.349 189.635 362.349 195.354 359.669 199.996L282.58 333.501" stroke="url(#paint0_linear_724_550)" stroke-width="15" stroke-miterlimit="10"/>
<path d="M128.86 138.952C131.728 135.197 134.916 127.616 138.784 120.087C147.301 103.497 157.4 86.4286 144.863 68.8689C142.775 65.9328 128.675 53.5026 120.453 61.9398C111.101 71.5371 152.577 80.4639 125.044 135.988" fill="black"/>
<path d="M119.349 137.594C120.732 134.254 121.598 128.017 122.983 121.703C126.029 107.77 130.152 93.168 117.455 82.7286C115.339 80.9857 102.489 74.6426 98.0634 82.5121C93.0275 91.4618 125.425 89.7282 115.949 136.176" fill="black"/>
<path d="M271.606 315.793C272.247 297.589 272.324 294.93 269.608 280.392C267.627 284.016 259.089 289.098 256.667 292.794C245.814 309.321 227.01 307.892 209.755 308.431C223.235 314.902 253.928 318.569 271.607 315.782L271.606 315.793Z" fill="#231F20"/>
<path d="M144.664 204.87C143.287 214.617 141.499 230.468 146.127 249.118C147.13 253.18 147.039 252.61 149.363 258.824L164.202 266.486L177.909 260.555C190.131 253.333 199.495 248.921 207.027 243.198C222.203 231.666 222.577 210.131 219.369 191.342L216.733 175.907C213.322 173.544 209.556 171.294 205.403 169.365C191.454 162.874 176.211 166.169 172.705 167.067C172.203 167.196 171.717 167.367 171.236 167.559V167.559C166.604 169.409 162.402 172.228 158.997 175.872C152.262 183.079 146.94 189.975 144.653 204.869L144.664 204.87Z" fill="url(#paint1_linear_724_550)"/>
<path d="M152.81 159.782C152.662 163.491 151.949 169.663 148.678 176.374C143.889 186.214 136.494 191.298 133.392 193.375C125.554 198.626 118.117 200.178 111.784 201.348C76.8968 207.787 62.4556 202.942 56.3514 195.136C50.2472 187.33 52.9929 180.903 55.1874 175.607C64.252 150.915 91.3559 117.565 122.16 123.29C125.065 123.829 139.863 125.782 147.595 135.885C151.865 141.471 153.724 151.464 152.79 159.774" fill="url(#paint2_linear_724_550)"/>
<path d="M97.4806 164.56C97.5266 163.199 97.7769 160.936 98.9768 158.481C100.734 154.882 103.47 153.034 104.618 152.28C107.519 150.372 110.689 148.892 113.04 148.478C125.993 146.199 129.263 150.165 131.551 153.044C133.667 155.707 132.962 160.56 131.86 163.568C128.549 172.607 120.426 180.198 108.962 178.023C107.88 177.819 102.375 177.066 99.4763 173.341C97.876 171.281 97.1608 167.61 97.488 164.563" fill="#FCFDF5"/>
<path d="M167.319 124.664L166.182 131.391C165.085 137.884 164.632 144.47 164.829 151.052L165.024 157.547L167.807 137.525C170.003 121.721 176.012 106.689 185.315 93.7269C189.649 87.6884 194.653 82.1608 200.233 77.2499L203.339 74.5159C209.067 69.4737 215.438 65.2124 222.285 61.8432L227.929 59.0658C230.968 57.5708 234.19 56.4809 237.512 55.8243L240.043 55.3239C245.824 54.1812 251.813 54.7603 257.268 56.9893C269.095 61.8223 276.583 73.5946 275.947 86.3553L275.927 86.7566C275.836 88.5696 275.585 90.371 275.176 92.1396L273.979 97.3139C272.101 105.437 269.107 113.261 265.084 120.563L243.91 158.993L234.025 181.284L245.085 168.384C251.52 160.878 260.292 155.755 269.991 153.838L271.343 153.57C281.893 151.485 292.841 153.658 301.794 159.616L303.065 160.462C305.621 162.163 307.907 164.238 309.846 166.619C314.43 172.247 316.865 179.321 316.719 186.578L316.66 189.473C316.613 191.817 316.351 194.152 315.879 196.448L315.733 197.158C314.587 202.739 312.39 208.112 309.317 212.91C304.781 219.99 298.389 225.81 290.894 229.622L276.658 236.863L285.642 235.308C292.266 234.161 298.625 231.815 304.407 228.384L306.068 227.399C313.246 223.139 319.189 217.08 323.309 209.82C326.681 203.877 328.744 197.282 329.361 190.477L329.698 186.756C330.031 183.086 329.864 179.388 329.201 175.763L328.904 174.134C326.884 163.081 319.981 153.531 310.12 148.145C305.581 145.666 300.575 144.16 295.421 143.722L289.538 143.222C285.255 142.858 280.946 142.919 276.674 143.402L263.404 144.903L264.155 144.125C271.43 136.587 277.476 127.954 282.07 118.54L284.669 113.215C286.944 108.554 288.789 103.694 290.18 98.6971C293.864 85.4643 294.293 71.5371 291.43 58.1027L290.927 55.7386C287.36 42.2204 275.47 32.5536 261.509 31.8202L258.887 31.6825C255.633 31.5116 252.371 31.786 249.192 32.4982L241.294 34.2673C236.058 35.4401 230.957 37.1493 226.072 39.3679C217.667 43.1849 210.005 48.4618 203.442 54.9537L198.89 59.4568C186.22 71.9905 177.129 87.6827 172.559 104.909L167.319 124.664Z" fill="black"/>
<path d="M166.929 251.435C158.276 253.609 156.112 255.239 148 256.326C153.249 271.095 163.407 283.614 176.777 291.793L180.99 294.37L186.839 295.209C190.484 295.733 194.192 295.629 197.802 294.904C199.57 294.548 201.306 294.045 202.99 293.401L211.725 290.057C219.282 287.164 226.191 282.801 232.052 277.221C239.703 269.937 245.34 260.797 248.413 250.689L249.673 246.543L252.059 235.457C253.312 229.63 252.468 223.548 249.673 218.283L245.347 209.587L245.208 209.274C237.937 192.921 225.427 179.454 209.653 171L206.949 209.587C205.867 215.022 199.909 222.55 192.347 230.783C185.857 237.848 186.177 240.475 180.99 243.826C174.5 248.019 175.582 249.261 166.929 251.435Z" fill="#121A1D"/>
<path d="M210.294 283.089C205.941 285.538 170.392 284.166 167.696 284.706C171.645 288.295 175.857 291.584 180.297 294.544L181.716 295.49L191.961 300.882L200.083 304.402C205.436 306.722 211.031 308.435 216.765 309.51L226.657 308.161C227.962 307.983 229.228 307.592 230.406 307.003L231.125 306.643C232.319 306.046 233.636 305.735 234.972 305.735C235.771 305.735 236.566 305.624 237.335 305.404L242.099 304.043C243.182 303.734 244.24 303.344 245.266 302.878L246.561 302.29C248.602 301.362 250.427 300.016 251.916 298.34C253.273 296.813 254.909 295.56 256.736 294.646L256.897 294.566C258.53 293.749 260.021 292.675 261.312 291.384L267.99 284.706L267.99 282.941C267.99 274.796 267.099 266.674 265.332 258.723C263.515 250.548 260.784 242.603 257.191 235.039L252.353 224.853L247.5 241.029C246.095 248.408 243.103 255.678 238.272 261.43C237.965 261.796 237.628 262.184 237.255 262.599C232.402 267.991 232.941 267.991 227.01 272.304C221.078 276.618 218.922 278.236 210.294 283.089Z" fill="url(#paint3_linear_724_550)"/>
<path d="M211.318 171.545L205.417 167.807L195.762 163C198.939 171.788 200.088 181.18 199.122 190.475L198.98 191.841C197.907 202.523 196.298 208.398 194.152 214.807C192.543 219.614 189.861 225.311 187.179 229.761C185.57 232.432 183.424 235.636 178.06 239.909C173.321 243.684 165.185 247.92 159.285 250.057C152.881 252.182 146.204 253.371 139.461 253.588L133 253.795L133.957 253.993C143.603 255.98 153.538 256.132 163.241 254.441C167.747 253.656 172.211 252.563 176.414 250.756C180.288 249.091 184.067 247.125 187.179 244.716C192.007 240.977 198.053 234.914 203.808 222.818C208.636 212.67 211.318 205.727 213.464 192.909L214 184.898V181.857C214 178.247 213.077 174.698 211.318 171.545Z" fill="white"/>
<path d="M258.261 220.989L253.537 215.302L245.38 207.31C245.824 216.813 244.058 226.289 240.221 234.994L239.199 237.312C234.966 245.419 231.087 253.049 226.831 258.778C223.639 263.074 219.075 267.912 214.919 271.499C212.425 273.652 208.77 275.493 202.416 278.693L202.415 278.693C198.558 280.636 192.949 281.558 187.854 282.381C183.354 283.108 178.779 283.441 174.233 283.115C171.026 282.884 167.853 282.316 164.765 281.419L152.481 277.85C159.384 282.015 166.888 285.091 174.728 286.969L176.531 287.401C185.382 288.756 194.431 288.332 203.24 286.727C205.917 286.24 208.122 285.847 209.126 285.62C213.219 284.696 225.509 281.335 233.941 269.985C239.57 262.408 243.37 256.606 247.026 250.568C249.429 246.6 251.45 242.413 253.179 238.108L253.927 236.245C255.902 231.326 257.355 226.212 258.261 220.989Z" fill="white"/>
<path d="M285.089 260.477L281.629 253.943L275.278 244.453L269.608 255.588L264.755 269.069C261.52 278.235 257.409 285.042 251.814 290.637C244.804 297.647 238.873 300.343 234.465 302.332C231.462 303.687 227.345 305.653 220.164 306.843C216.647 307.426 212.439 307.4 208.332 307.285C202.225 307.114 196.137 306.162 190.313 304.315C187.1 303.295 183.985 301.986 181.008 300.403L169.918 294.507L173.255 297.452C179.348 302.829 186.664 306.634 194.565 308.535C199.143 309.637 203.874 309.929 208.552 310.464C211.129 310.759 213.117 311.152 214.608 311.127C217.914 311.074 240.269 310.945 251.814 302.783C262.174 295.457 266.373 289.559 272.571 281.352L277.527 274.386C280.597 270.07 283.136 265.4 285.089 260.477Z" fill="white"/>
</g>
<defs>
<linearGradient id="paint0_linear_724_550" x1="192.5" y1="44" x2="192.5" y2="341" gradientUnits="userSpaceOnUse">
<stop stop-color="#FED34D"/>
<stop offset="1" stop-color="#EE7300"/>
</linearGradient>
<linearGradient id="paint1_linear_724_550" x1="182.878" y1="165.017" x2="173.591" y2="267.092" gradientUnits="userSpaceOnUse">
<stop stop-color="#FFEA00"/>
<stop offset="1" stop-color="#FF9D00"/>
</linearGradient>
<linearGradient id="paint2_linear_724_550" x1="124.197" y1="122.274" x2="87.546" y2="210.722" gradientUnits="userSpaceOnUse">
<stop stop-color="#FFEA00"/>
<stop offset="1" stop-color="#FF9D00"/>
</linearGradient>
<linearGradient id="paint3_linear_724_550" x1="243.762" y1="216.851" x2="218.916" y2="312.583" gradientUnits="userSpaceOnUse">
<stop stop-color="#FFEA00"/>
<stop offset="1" stop-color="#FF9D00"/>
</linearGradient>
<clipPath id="clip0_724_550">
<rect width="385" height="385" fill="white"/>
</clipPath>
</defs>
</svg>
